<svg xmlns="http://www.w3.org/2000/svg" width="15" height="14" viewBox="0 0 15 14" fill="none">
    <path d="M11.0082 0.614542H11.2682L11.2712 0.61135C12.8514 0.754647 14.4 2.24448 14.4 4.49338C14.4 7.08022 12.6572 9.31358 10.9571 10.871L10.9571 10.871L10.9529 10.8749C10.1121 11.6601 9.25582 12.2935 8.62259 12.7162C8.28164 12.9345 8.01757 13.1036 7.83471 13.2151C7.79797 13.2375 7.74884 13.2654 7.70503 13.2896C7.69723 13.294 7.68979 13.298 7.68286 13.3018H7.63411L7.4996 13.3941L7.35549 13.3018H7.29001C7.25251 13.2812 7.21067 13.2573 7.16529 13.2296L7.15756 13.2249L7.14969 13.2205C6.96567 13.1157 6.70932 12.9521 6.38579 12.7363C5.74516 12.2946 4.89979 11.6735 4.04424 10.8868C2.35467 9.32662 0.6 7.09369 0.6 4.50792C0.6 2.14072 2.31584 0.614542 3.9782 0.614542C5.20184 0.614542 6.29208 1.28377 6.98941 2.36173L7.49319 3.14049L7.99697 2.36173C8.69365 1.28478 9.7971 0.614542 11.0082 0.614542Z" stroke="#ffffff" stroke-width="1.2"/>
</svg>