<svg xmlns="http://www.w3.org/2000/svg" width="19" height="12" viewBox="0 0 19 12" fill="none">
<path d="M9.5 12C8.35262 12 7.16774 11.696 5.97537 11.1C5.04171 10.632 4.10056 9.984 3.17816 9.172C1.62207 7.8 0.662171 6.44 0.620925 6.384C0.459692 6.156 0.459692 5.844 0.620925 5.616C0.662171 5.56 1.62207 4.2 3.17816 2.828C4.10056 2.016 5.04171 1.368 5.97537 0.9C7.16774 0.304 8.35262 0 9.5 0C10.6474 0 11.8323 0.304 13.0246 0.9C13.9583 1.368 14.8994 2.016 15.8218 2.828C17.3779 4.2 18.3416 5.56 18.3791 5.616C18.5403 5.844 18.5403 6.156 18.3791 6.384C18.3378 6.44 17.3779 7.8 15.8218 9.172C14.8994 9.984 13.9583 10.632 13.0246 11.1C11.8323 11.696 10.6474 12 9.5 12ZM1.7 6C2.64115 7.188 5.92287 10.8 9.5 10.8C13.0846 10.8 16.3588 7.188 17.3 6C16.3588 4.812 13.0771 1.2 9.5 1.2C5.91537 1.2 2.64115 4.812 1.7 6Z" fill="white"/>
<path d="M9.5 9C7.84583 9 6.5 7.65417 6.5 6C6.5 4.34583 7.84583 3 9.5 3C11.1542 3 12.5 4.34583 12.5 6C12.5 7.65417 11.1542 9 9.5 9ZM9.5 4.33333C8.57917 4.33333 7.83333 5.07917 7.83333 6C7.83333 6.92083 8.57917 7.66667 9.5 7.66667C10.4208 7.66667 11.1667 6.92083 11.1667 6C11.1667 5.07917 10.4208 4.33333 9.5 4.33333Z" fill="white"/>
</svg>