<svg xmlns="http://www.w3.org/2000/svg" width="45" height="25" viewBox="0 0 45 25" fill="none">
<g clip-path="url(#clip0_1304_148763)">
<path d="M15.6196 6.79407C15.6196 10.0985 13.042 12.7854 9.85472 12.7854C6.66745 12.7854 4.08984 10.1066 4.08984 6.79407C4.08984 3.48159 6.67516 0.802734 9.86244 0.802734C13.0497 0.802734 15.6273 3.48159 15.6273 6.79407H15.6196Z" stroke="#111111" stroke-width="1.2" stroke-miterlimit="10" stroke-linecap="round"/>
<path d="M0.773438 18.7685C0.773438 15.464 4.84049 12.7852 9.8645 12.7852C14.8885 12.7852 18.1931 15.5039 19.1505 18.5039" stroke="#111111" stroke-width="1.2" stroke-miterlimit="10" stroke-linecap="round"/>
<path d="M40.9008 6.79407C40.9008 10.0985 38.3232 12.7854 35.136 12.7854C31.9487 12.7854 29.3711 10.1066 29.3711 6.79407C29.3711 3.48159 31.9487 0.802734 35.136 0.802734C38.3232 0.802734 40.9008 3.48159 40.9008 6.79407Z" stroke="#111111" stroke-width="1.2" stroke-miterlimit="10" stroke-linecap="round"/>
<path d="M25.8516 18.5039C26.3303 15.5039 30.1215 12.7852 35.1455 12.7852C40.1695 12.7852 44.2289 15.464 44.2289 18.7685" stroke="#111111" stroke-width="1.2" stroke-miterlimit="10" stroke-linecap="round"/>
<path d="M28.229 12.2238C28.229 15.5362 25.6514 18.2151 22.4641 18.2151C19.2768 18.2151 16.6992 15.5362 16.6992 12.2238C16.6992 8.91128 19.2768 6.23242 22.4641 6.23242C25.6514 6.23242 28.229 8.91128 28.229 12.2238Z" stroke="#111111" stroke-width="1.2" stroke-miterlimit="10" stroke-linecap="round"/>
<path d="M13.3828 24.1984C13.3828 20.8939 17.4499 18.207 22.4739 18.207C27.4979 18.207 31.5572 20.8859 31.5572 24.1984" stroke="#111111" stroke-width="1.2" stroke-miterlimit="10" stroke-linecap="round"/>
</g>
<defs>
<clipPath id="clip0_1304_148763">
<rect width="45" height="25" fill="white"/>
</clipPath>
</defs>
</svg>