<svg xmlns="http://www.w3.org/2000/svg" width="21" height="36" viewBox="0 0 21 36" fill="none">
<path d="M3.68396 35V28.8256H1V25H20V28.8256H10.5" stroke="#111111" stroke-width="1.2" stroke-miterlimit="10" stroke-linecap="round"/>
<path d="M17 29V35" stroke="#111111" stroke-width="1.2" stroke-miterlimit="10" stroke-linecap="round"/>
<path d="M5.20032 24.8659L1 15.2921C1 15.2921 7.41421 8.18583 7.41421 1H13.2674" stroke="#111111" stroke-width="1.2" stroke-miterlimit="10" stroke-linecap="round"/>
<path d="M15.2316 24.8659L19.432 15.2993C19.432 15.2993 13.5959 8.18583 13.5959 1H7.42578" stroke="#111111" stroke-width="1.2" stroke-miterlimit="10" stroke-linecap="round"/>
<path d="M10.5 13.1862V1" stroke="#111111" stroke-width="1.2" stroke-miterlimit="10" stroke-linecap="round"/>
<path d="M10.5019 12.5977C12.314 12.5977 13.7772 13.9943 13.7772 15.7238C13.7772 17.4533 12.3064 18.85 10.5019 18.85C8.69743 18.85 7.22656 17.4461 7.22656 15.7238C7.22656 14.9061 7.55258 14.1607 8.09089 13.6035" stroke="#111111" stroke-width="1.2" stroke-miterlimit="10" stroke-linecap="round"/>
</svg>