<svg xmlns="http://www.w3.org/2000/svg" width="15" height="15" viewBox="0 0 15 15" fill="none">
    <path d="M2.44436 11.7088L2.46903 11.4404L2.28467 11.2436C1.22977 10.118 0.6 8.64203 0.6 7.03237C0.6 3.51802 3.65088 0.6 7.5 0.6C11.3491 0.6 14.4 3.51802 14.4 7.03237C14.4 10.5467 11.3491 13.4647 7.5 13.4647C6.80451 13.4647 6.12984 13.3721 5.46452 13.1785L5.22519 13.1089L5.00695 13.2293C4.57309 13.4688 3.56999 13.9341 1.88739 14.2866C2.14731 13.4998 2.36471 12.5757 2.44436 11.7088Z" stroke="#111111" stroke-width="1.2"/>
    <ellipse cx="3.75" cy="7.03181" rx="0.9375" ry="1.00446" fill="#111111"/>
    <ellipse cx="7.5" cy="7.03181" rx="0.9375" ry="1.00446" fill="#111111"/>
    <ellipse cx="11.25" cy="7.03181" rx="0.9375" ry="1.00446" fill="#111111"/>
</svg>