<svg xmlns="http://www.w3.org/2000/svg" width="30" height="30" viewBox="0 0 30 30" fill="none">
<g clip-path="url(#clip0_1304_36536)">
<path d="M25.4366 26.137L24.4366 25.4093C24.3732 25.3661 18.169 20.8848 12.5704 20.8848H3.90845C3.78873 20.8848 2.76056 20.8272 1.55634 19.4007C1.50704 19.343 0 17.6355 0 13.6586V12.4842C0 8.5073 1.50704 6.7926 1.57042 6.72056C2.76056 5.31566 3.78873 5.25802 3.90141 5.25802H12.5704C18.162 5.25802 24.3732 0.776753 24.4366 0.733525L25.4366 0.00585938V26.137ZM12.5704 19.5808C17.2465 19.5808 22.1127 22.3474 24.169 23.673V2.46263C22.1127 3.78108 17.2465 6.55485 12.5704 6.55485H3.90845C3.90845 6.55485 3.32394 6.6269 2.51408 7.58511C2.49296 7.61393 1.26761 9.06205 1.26761 12.4842V13.6586C1.26761 17.0808 2.49296 18.5289 2.50704 18.5433C3.33099 19.5231 3.93662 19.588 3.94366 19.588H12.5704V19.5808Z" fill="white"/>
<path d="M8.02745 29.9992H7.69647C6.37957 29.9992 5.78097 29.3219 5.71759 29.2427C5.25281 28.7239 5.21759 28.2556 5.21055 28.126V24.8551C5.21055 22.8378 3.99224 20.5827 3.9852 20.5611L3.45703 19.5957H12.2669L11.7458 20.5611C11.7458 20.5611 10.5204 22.845 10.5204 24.8551V28.1188C10.5204 28.2556 10.4782 28.7239 9.99928 29.2571C9.94999 29.3147 9.3514 29.9992 8.0345 29.9992H8.02745ZM6.47816 28.1043C6.47816 28.1043 6.52041 28.2196 6.6683 28.3853C6.68238 28.3997 6.97816 28.7023 7.69647 28.7023H8.02745C8.74576 28.7023 9.04154 28.3997 9.05562 28.3853C9.22464 28.1908 9.24576 28.0683 9.24576 28.0611V24.8551C9.24576 23.3781 9.76689 21.8507 10.1753 20.8925H5.54858C5.95703 21.8435 6.47816 23.3709 6.47816 24.8551V28.1116V28.1043Z" fill="white"/>
<path d="M12.5713 20.8794C12.2192 20.8794 11.9375 20.5912 11.9375 20.2309V5.90818C11.9375 5.54795 12.2192 5.25977 12.5713 5.25977C12.9234 5.25977 13.2051 5.54795 13.2051 5.90818V20.2309C13.2051 20.5912 12.9234 20.8794 12.5713 20.8794Z" fill="white"/>
<path d="M27.7376 26.1099H24.2024L24.1602 0.0507812H27.7376V26.1099ZM25.463 24.813H26.47V1.34041H25.4278L25.463 24.8058V24.813Z" fill="white"/>
<path d="M27.1066 16.7076C26.8601 16.7076 26.6277 16.5636 26.522 16.3186C26.3812 15.9872 26.5291 15.6053 26.853 15.4685C28.7615 14.6327 28.7263 13.163 28.7263 13.0981C28.7263 11.2105 26.9516 10.699 26.9375 10.699C26.5995 10.6053 26.4023 10.2523 26.4939 9.90649C26.5854 9.56067 26.9305 9.35894 27.2685 9.4526C28.2122 9.71197 29.9939 10.8071 29.9939 13.0765C29.9939 13.1342 30.1065 15.4612 27.353 16.6716C27.2685 16.7076 27.184 16.7221 27.1066 16.7221V16.7076Z" fill="white"/>
</g>
<defs>
<clipPath id="clip0_1304_36536">
<rect width="30" height="30" fill="white"/>
</clipPath>
</defs>
</svg>